<svg xmlns="http://www.w3.org/2000/svg" viewBox="0 0 2048 580" width="2048" height="580">
<g fill="#ffffff" fill-rule="evenodd">
<path d="M 1470.75,532.75 L 1471.00,534.50 L 1471.50,535.25 L 1472.00,535.50 L 1474.25,535.50 L 1474.50,535.75 L 1476.25,535.75 L 1476.50,535.50 L 1477.25,535.50 L 1477.50,535.75 L 1531.25,535.75 L 1531.50,536.00 L 1532.75,536.00 L 1533.00,535.75 L 1534.50,535.75 L 1534.75,536.00 L 1535.25,536.00 L 1535.50,535.75 L 1592.50,535.75 L 1592.75,535.50 L 1621.75,535.50 L 1622.00,535.25 L 1637.00,535.25 L 1637.25,535.00 L 1676.75,534.75 L 1677.00,534.50 L 1684.75,534.50 L 1685.00,534.25 L 1691.50,534.25 L 1691.75,534.00 L 1723.00,533.75 L 1723.50,533.50 L 1723.50,533.00 L 1697.50,532.75 L 1697.25,532.50 L 1685.50,532.50 L 1685.25,532.25 L 1674.25,532.25 L 1674.00,532.00 L 1623.25,531.75 L 1623.00,531.50 L 1602.00,531.50 L 1601.75,531.25 L 1584.25,531.25 L 1584.00,531.00 L 1556.75,531.00 L 1556.50,530.75 L 1556.00,530.75 L 1555.75,531.00 L 1554.50,531.00 L 1554.25,530.75 L 1497.50,530.75 L 1497.25,531.00 L 1476.75,531.00 L 1476.50,531.25 L 1472.50,531.25 L 1471.25,531.75 Z"/>
<path d="M 457.75,532.75 L 457.50,532.25 L 457.00,532.00 L 456.00,532.00 L 455.75,531.75 L 440.25,531.50 L 440.00,531.25 L 434.75,531.25 L 434.50,531.00 L 419.50,531.00 L 419.25,530.75 L 365.00,530.75 L 364.75,531.00 L 341.25,531.00 L 341.00,531.25 L 329.75,531.25 L 329.50,531.50 L 300.00,531.75 L 299.75,532.00 L 282.00,532.00 L 281.75,532.25 L 272.00,532.25 L 271.75,532.50 L 262.50,532.50 L 262.25,532.75 L 250.50,532.75 L 250.25,533.00 L 242.50,533.00 L 242.25,533.25 L 240.50,533.25 L 240.50,533.75 L 249.00,533.75 L 249.25,534.00 L 267.50,534.00 L 267.75,534.25 L 275.00,534.25 L 275.25,534.50 L 281.00,534.50 L 281.25,534.75 L 311.00,535.00 L 311.25,535.25 L 341.00,535.50 L 341.25,535.75 L 375.50,535.75 L 375.75,536.00 L 380.00,536.00 L 380.25,535.75 L 380.75,535.75 L 381.00,536.00 L 382.00,536.00 L 382.25,535.75 L 382.75,535.75 L 383.00,536.00 L 413.50,536.00 L 413.75,535.75 L 427.75,535.75 L 428.00,536.00 L 428.50,536.00 L 428.75,535.75 L 450.50,535.75 L 450.75,535.50 L 452.75,535.50 L 453.00,535.25 L 454.00,535.25 L 454.25,535.00 L 456.25,534.75 L 457.50,533.75 Z"/>
<path d="M 1305.75,509.00 L 1305.25,509.50 L 1305.25,559.50 L 1305.75,560.50 L 1306.50,561.00 L 1317.25,561.00 L 1317.75,560.75 L 1318.00,560.25 L 1318.00,559.00 L 1317.75,558.75 L 1317.75,510.00 L 1317.50,509.50 L 1316.50,509.00 Z"/>
<path d="M 1173.25,510.00 L 1172.25,509.25 L 1167.75,509.25 L 1167.50,509.00 L 1161.75,509.00 L 1161.25,509.25 L 1161.25,509.75 L 1161.00,510.00 L 1161.00,537.50 L 1160.75,537.75 L 1160.75,540.00 L 1160.50,540.25 L 1160.50,541.00 L 1160.25,541.25 L 1159.75,543.75 L 1159.00,545.00 L 1159.00,545.50 L 1156.75,548.50 L 1154.00,550.75 L 1152.75,551.25 L 1152.25,551.75 L 1151.00,552.00 L 1150.75,552.25 L 1150.00,552.25 L 1149.75,552.50 L 1149.00,552.50 L 1148.75,552.75 L 1142.75,553.00 L 1142.50,552.75 L 1139.75,552.75 L 1139.50,552.50 L 1138.50,552.50 L 1137.25,552.00 L 1136.25,552.00 L 1135.25,551.25 L 1133.25,550.50 L 1131.75,549.50 L 1130.00,547.75 L 1130.00,547.50 L 1128.75,546.25 L 1128.00,544.75 L 1127.75,543.25 L 1127.00,541.50 L 1127.00,539.00 L 1126.75,538.75 L 1126.75,522.75 L 1127.00,522.50 L 1127.00,512.50 L 1127.25,512.25 L 1127.25,510.25 L 1126.50,509.25 L 1115.25,509.25 L 1114.75,509.50 L 1114.50,510.00 L 1114.50,513.75 L 1114.75,514.00 L 1114.75,528.75 L 1114.50,529.00 L 1114.75,542.25 L 1115.00,542.50 L 1115.00,544.75 L 1116.00,546.50 L 1116.00,547.25 L 1116.75,548.50 L 1117.00,549.75 L 1117.75,550.50 L 1118.75,552.50 L 1120.00,553.75 L 1120.00,554.00 L 1124.00,557.50 L 1125.25,558.00 L 1126.00,558.75 L 1126.50,558.75 L 1127.75,559.50 L 1129.00,559.75 L 1130.50,560.75 L 1131.50,560.75 L 1131.75,561.00 L 1132.50,561.00 L 1132.75,561.25 L 1133.50,561.25 L 1134.75,561.75 L 1138.75,562.00 L 1139.00,562.25 L 1140.00,562.25 L 1140.25,562.50 L 1145.50,562.50 L 1145.75,562.25 L 1149.25,562.00 L 1149.50,561.75 L 1151.75,561.75 L 1153.75,561.00 L 1156.00,560.75 L 1157.00,560.00 L 1158.50,559.75 L 1161.50,558.50 L 1162.25,557.75 L 1163.25,557.50 L 1165.25,556.00 L 1168.00,553.00 L 1168.75,551.50 L 1169.50,550.75 L 1170.00,549.75 L 1170.00,549.25 L 1170.75,548.00 L 1170.75,547.50 L 1171.75,545.75 L 1171.75,544.50 L 1172.00,544.25 L 1172.25,542.50 L 1172.75,541.50 L 1172.75,537.50 L 1173.00,537.25 L 1173.00,528.00 L 1173.25,527.75 L 1173.25,524.75 L 1173.00,524.50 L 1173.00,524.00 L 1173.25,523.75 L 1173.25,511.25 L 1173.50,511.00 Z"/>
<path d="M 1024.50,509.75 L 1024.25,515.25 L 1024.50,515.50 L 1024.75,518.00 L 1025.75,518.75 L 1033.50,518.75 L 1033.75,518.50 L 1039.50,518.50 L 1039.75,518.25 L 1045.50,518.25 L 1045.75,518.00 L 1046.25,518.00 L 1047.00,518.75 L 1047.00,519.25 L 1047.25,519.50 L 1047.25,520.25 L 1047.00,520.50 L 1047.00,523.00 L 1047.25,523.25 L 1047.25,526.00 L 1047.00,526.25 L 1047.00,560.25 L 1047.50,560.75 L 1051.75,560.75 L 1052.00,561.00 L 1058.50,561.00 L 1059.50,560.25 L 1059.50,558.75 L 1059.25,558.50 L 1059.50,519.25 L 1060.50,518.50 L 1082.25,518.50 L 1082.50,518.25 L 1083.00,518.25 L 1083.75,517.75 L 1083.75,517.00 L 1084.00,516.75 L 1084.25,509.75 L 1083.50,509.00 L 1027.50,509.00 L 1027.25,509.25 L 1025.50,509.00 Z"/>
<path d="M 692.50,509.00 L 691.75,509.75 L 691.50,516.25 L 691.75,516.50 L 692.00,518.25 L 692.75,518.75 L 701.00,518.75 L 701.25,518.50 L 710.25,518.50 L 710.50,518.25 L 714.00,518.25 L 714.75,519.00 L 714.75,522.00 L 714.50,522.25 L 714.50,522.75 L 714.75,523.00 L 714.75,528.00 L 714.50,528.25 L 714.50,531.00 L 714.75,531.25 L 714.75,556.50 L 715.00,556.75 L 715.00,560.50 L 715.50,561.00 L 723.25,561.00 L 723.50,560.75 L 726.75,560.75 L 727.25,560.50 L 727.50,560.00 L 727.50,558.25 L 727.25,558.00 L 727.25,520.50 L 727.00,520.25 L 727.00,519.50 L 727.25,519.00 L 728.00,518.50 L 749.75,518.50 L 750.75,517.50 L 750.75,514.75 L 751.00,514.50 L 751.00,511.75 L 751.25,511.50 L 751.25,509.75 L 751.00,509.25 L 750.50,509.00 Z"/>
<path d="M 659.25,509.25 L 658.75,509.00 L 650.00,509.00 L 649.75,509.25 L 647.25,509.25 L 646.50,510.25 L 646.50,511.50 L 646.75,511.75 L 646.75,512.75 L 646.50,513.00 L 646.50,538.50 L 646.25,538.75 L 646.00,544.00 L 645.00,545.25 L 645.00,545.75 L 644.50,546.25 L 644.00,547.50 L 642.75,548.75 L 642.75,549.00 L 640.50,551.00 L 638.00,552.25 L 635.00,552.50 L 634.75,552.75 L 626.75,552.75 L 626.50,552.50 L 625.25,552.50 L 625.00,552.25 L 622.75,552.00 L 621.00,551.00 L 620.00,550.75 L 619.50,550.25 L 618.00,549.50 L 615.00,546.25 L 614.75,545.25 L 613.75,543.25 L 613.75,542.25 L 613.25,541.00 L 613.25,539.50 L 613.00,539.25 L 613.00,521.50 L 613.25,521.25 L 613.25,511.75 L 613.50,511.50 L 613.50,510.25 L 613.25,510.00 L 613.25,509.50 L 613.00,509.25 L 608.75,509.25 L 608.50,509.50 L 601.50,509.50 L 601.00,510.00 L 601.00,512.50 L 601.25,512.75 L 601.25,526.75 L 601.00,527.00 L 601.00,540.00 L 601.25,540.25 L 601.25,543.00 L 601.75,544.00 L 602.00,545.75 L 603.00,547.75 L 603.00,548.50 L 606.25,553.75 L 610.25,557.50 L 611.25,557.75 L 612.00,558.50 L 613.50,559.25 L 614.00,559.25 L 614.75,559.75 L 615.75,559.75 L 617.25,560.75 L 618.25,560.75 L 618.50,561.00 L 619.50,561.00 L 619.75,561.25 L 622.00,561.50 L 622.25,561.75 L 629.75,562.00 L 630.00,562.25 L 631.50,562.25 L 631.75,562.00 L 635.00,562.00 L 635.25,561.75 L 637.75,561.75 L 638.00,561.50 L 639.00,561.50 L 640.25,561.00 L 642.25,560.75 L 644.00,559.75 L 645.00,559.75 L 648.00,558.50 L 648.75,557.75 L 649.25,557.75 L 651.50,555.75 L 651.75,555.75 L 654.00,553.50 L 656.50,549.75 L 656.75,548.50 L 657.75,547.25 L 658.00,545.00 L 658.50,544.00 L 658.50,542.75 L 658.75,542.50 L 658.75,539.50 L 659.00,539.25 L 659.00,527.75 L 659.25,527.50 L 659.25,527.00 L 659.00,526.75 L 659.00,524.00 L 659.25,523.75 L 659.25,515.75 L 659.50,515.50 L 659.50,510.00 L 659.25,509.75 Z"/>
<path d="M 503.00,560.25 L 503.00,560.75 L 503.50,561.25 L 504.25,561.25 L 504.50,561.50 L 507.25,561.50 L 507.50,561.75 L 515.25,561.75 L 516.50,560.25 L 516.50,559.75 L 518.00,557.25 L 518.00,556.75 L 518.50,556.25 L 519.75,553.75 L 520.00,552.75 L 521.50,551.00 L 522.00,550.75 L 534.50,550.75 L 534.75,551.00 L 549.00,551.00 L 549.25,551.25 L 553.50,551.25 L 554.50,552.00 L 555.00,553.00 L 555.00,553.50 L 555.75,554.25 L 556.00,555.25 L 556.50,555.75 L 557.25,557.50 L 557.75,558.00 L 558.25,559.50 L 559.50,561.00 L 560.50,561.50 L 566.50,561.50 L 566.75,561.25 L 567.75,561.25 L 568.00,561.50 L 571.75,561.50 L 572.00,561.25 L 572.00,560.00 L 571.75,559.75 L 571.50,558.50 L 570.00,556.25 L 569.75,555.25 L 569.00,554.25 L 567.50,551.00 L 566.75,550.25 L 566.50,549.50 L 566.00,549.00 L 565.75,548.00 L 564.75,546.75 L 564.75,546.25 L 564.25,545.25 L 563.00,543.50 L 562.75,542.50 L 562.00,541.50 L 560.75,538.75 L 559.75,537.50 L 559.50,536.50 L 558.00,534.50 L 557.50,533.00 L 556.25,531.25 L 555.75,530.00 L 555.00,529.25 L 553.75,526.50 L 553.00,525.75 L 552.75,524.75 L 552.00,523.75 L 551.75,522.75 L 551.00,522.00 L 550.75,521.00 L 550.00,520.00 L 548.50,516.50 L 547.75,515.75 L 547.75,515.25 L 546.75,513.25 L 546.00,512.50 L 545.50,511.25 L 544.75,510.25 L 542.75,509.00 L 532.50,509.00 L 532.25,509.25 L 531.75,509.25 L 530.50,510.50 L 530.00,511.50 L 530.00,512.25 L 528.75,514.50 L 528.25,515.00 L 527.75,516.50 L 527.00,517.25 L 526.75,518.50 L 525.25,520.75 L 524.75,522.25 L 523.00,524.75 L 522.75,525.75 L 522.00,526.50 L 521.75,527.50 L 520.25,529.50 L 519.50,531.25 L 518.25,532.75 L 517.75,534.00 L 516.50,535.75 L 516.00,536.75 L 516.00,537.25 L 515.00,538.25 L 514.00,540.50 L 513.00,541.75 L 513.00,542.25 L 512.25,543.25 L 512.00,544.25 L 511.00,545.50 L 511.00,546.25 L 510.00,547.50 L 509.75,548.50 L 508.75,550.50 L 508.00,551.25 L 507.75,552.25 L 507.25,552.75 L 506.75,554.00 L 506.00,554.75 L 506.00,555.25 L 505.00,556.50 L 504.00,558.50 L 503.75,559.50 Z M 537.75,521.25 L 538.25,521.25 L 539.00,522.00 L 541.25,527.00 L 542.00,527.75 L 542.25,529.00 L 544.00,531.50 L 544.25,532.50 L 545.75,534.75 L 546.00,536.00 L 547.00,537.25 L 547.00,537.75 L 547.75,538.75 L 548.00,539.75 L 549.00,540.75 L 549.00,541.50 L 548.50,542.00 L 528.25,542.00 L 528.00,542.25 L 527.50,542.25 L 527.00,541.75 L 527.00,540.75 L 527.75,540.00 L 527.75,539.50 L 528.50,538.50 L 528.75,537.50 L 529.50,536.75 L 530.00,535.25 L 531.50,533.25 L 532.25,531.25 L 533.75,529.00 L 533.75,528.25 L 534.75,527.00 L 534.75,526.50 L 536.00,524.00 L 536.75,523.25 L 537.00,522.00 Z"/>
<path d="M 1209.00,509.50 L 1209.25,511.75 L 1209.50,512.00 L 1209.50,517.75 L 1209.75,518.00 L 1209.75,521.50 L 1209.50,521.75 L 1209.50,548.75 L 1209.75,549.00 L 1209.50,560.00 L 1210.00,560.75 L 1210.50,561.00 L 1235.50,561.00 L 1235.75,560.75 L 1241.25,560.75 L 1241.50,560.50 L 1243.25,560.50 L 1243.50,560.25 L 1244.25,560.25 L 1245.50,559.75 L 1249.25,559.50 L 1250.25,559.00 L 1252.00,558.75 L 1253.50,557.75 L 1255.25,557.50 L 1255.75,557.00 L 1256.75,556.75 L 1257.75,556.00 L 1259.00,555.50 L 1259.75,554.75 L 1260.50,554.50 L 1261.50,553.75 L 1262.00,553.00 L 1262.50,552.75 L 1266.00,549.00 L 1268.75,544.00 L 1268.75,543.00 L 1269.75,540.50 L 1269.75,538.50 L 1270.00,538.25 L 1270.00,530.50 L 1269.75,530.25 L 1269.75,529.00 L 1268.75,526.50 L 1268.50,524.75 L 1267.50,522.75 L 1267.00,522.25 L 1266.75,521.25 L 1266.00,520.50 L 1264.75,518.50 L 1261.00,515.00 L 1259.50,514.00 L 1259.00,514.00 L 1257.75,513.00 L 1253.75,511.00 L 1252.25,510.75 L 1251.25,510.00 L 1250.25,510.00 L 1250.00,509.75 L 1249.00,509.75 L 1248.75,509.50 L 1247.75,509.50 L 1247.50,509.25 L 1246.00,509.25 L 1245.75,509.00 L 1239.00,509.00 L 1238.75,508.75 L 1226.00,508.75 L 1225.75,509.00 L 1209.50,509.00 Z M 1222.50,518.75 L 1223.75,518.25 L 1226.25,518.25 L 1226.50,518.00 L 1237.50,518.00 L 1237.75,518.25 L 1239.75,518.25 L 1240.00,518.50 L 1241.25,518.50 L 1241.50,518.75 L 1243.50,518.75 L 1243.75,519.00 L 1244.75,519.00 L 1246.75,519.75 L 1248.00,519.75 L 1249.00,520.50 L 1250.50,521.00 L 1252.50,522.75 L 1252.75,522.75 L 1253.75,523.75 L 1254.75,525.25 L 1255.00,526.25 L 1256.00,527.50 L 1256.00,528.25 L 1256.75,529.75 L 1256.75,531.75 L 1257.00,532.00 L 1257.00,536.00 L 1256.75,536.25 L 1256.75,538.25 L 1256.25,539.00 L 1256.00,540.50 L 1255.25,541.50 L 1254.50,543.50 L 1253.50,544.50 L 1253.50,544.75 L 1250.50,547.75 L 1248.75,549.00 L 1247.75,549.25 L 1247.25,549.75 L 1245.75,550.00 L 1244.50,550.75 L 1243.75,550.75 L 1243.50,551.00 L 1241.00,551.00 L 1240.75,551.25 L 1239.75,551.25 L 1238.50,551.75 L 1236.00,551.75 L 1235.75,552.00 L 1228.25,552.00 L 1228.00,552.25 L 1223.00,552.25 L 1222.50,552.00 L 1221.75,551.25 L 1221.75,543.25 L 1222.00,543.00 L 1222.00,528.75 L 1221.75,528.50 L 1221.75,522.75 L 1222.00,522.50 L 1222.00,521.75 L 1221.75,521.50 L 1221.75,519.75 Z"/>
<path d="M 1358.25,518.50 L 1355.25,522.50 L 1355.00,523.50 L 1354.00,525.00 L 1354.00,525.50 L 1353.25,527.25 L 1353.25,528.00 L 1353.00,528.25 L 1353.00,529.25 L 1352.25,530.25 L 1352.25,531.00 L 1352.00,531.25 L 1352.00,536.75 L 1352.25,537.00 L 1352.25,538.00 L 1353.00,540.00 L 1353.25,542.00 L 1353.75,542.75 L 1354.00,544.25 L 1355.00,545.50 L 1355.00,546.00 L 1356.25,548.50 L 1358.75,551.50 L 1358.75,551.75 L 1362.75,555.50 L 1363.75,556.00 L 1364.50,556.75 L 1367.50,558.25 L 1368.50,559.00 L 1369.00,559.00 L 1370.50,559.75 L 1371.25,559.75 L 1372.75,560.75 L 1375.00,561.00 L 1375.25,561.25 L 1377.25,561.50 L 1377.50,561.75 L 1379.50,561.75 L 1379.75,562.00 L 1383.25,562.25 L 1383.50,562.50 L 1384.75,562.50 L 1385.00,562.25 L 1386.50,562.50 L 1386.75,562.25 L 1389.00,562.25 L 1389.25,562.00 L 1394.00,561.75 L 1394.25,561.50 L 1395.50,561.50 L 1396.75,561.00 L 1399.00,560.75 L 1400.75,559.75 L 1401.75,559.75 L 1402.00,559.50 L 1403.50,559.25 L 1404.25,558.75 L 1405.00,558.75 L 1405.75,558.00 L 1407.25,557.50 L 1409.25,556.00 L 1410.50,555.50 L 1411.50,554.50 L 1412.75,553.75 L 1412.75,553.50 L 1414.75,551.75 L 1417.75,547.50 L 1419.00,545.25 L 1419.25,544.00 L 1419.75,543.25 L 1419.75,542.50 L 1420.75,540.50 L 1420.75,538.75 L 1421.00,538.50 L 1421.00,532.00 L 1420.75,531.75 L 1420.75,529.75 L 1420.00,528.25 L 1419.75,526.75 L 1419.00,525.50 L 1418.75,524.00 L 1417.75,522.75 L 1416.50,520.25 L 1413.00,516.25 L 1412.75,516.25 L 1410.75,514.25 L 1410.50,514.25 L 1409.50,513.25 L 1408.75,513.00 L 1408.00,512.25 L 1405.75,511.00 L 1404.50,510.75 L 1403.50,510.00 L 1403.00,510.00 L 1401.25,509.25 L 1400.50,509.25 L 1400.25,509.00 L 1398.75,509.00 L 1396.50,508.00 L 1393.00,508.00 L 1392.75,507.75 L 1382.25,507.75 L 1382.00,508.00 L 1378.50,508.00 L 1376.00,509.00 L 1374.50,509.00 L 1374.25,509.25 L 1373.50,509.25 L 1372.50,509.75 L 1371.00,510.00 L 1369.25,511.00 L 1368.50,511.00 L 1366.00,512.25 L 1365.50,512.75 L 1364.25,513.25 L 1363.25,514.25 L 1362.00,515.00 L 1361.25,516.00 L 1360.00,516.75 Z M 1373.75,520.00 L 1376.25,518.75 L 1377.00,518.75 L 1378.50,518.00 L 1379.50,518.00 L 1379.75,517.75 L 1383.50,517.75 L 1383.75,517.50 L 1392.00,517.75 L 1392.25,518.00 L 1393.50,518.00 L 1395.00,518.75 L 1396.50,519.00 L 1397.75,519.75 L 1398.75,520.00 L 1399.25,520.50 L 1401.50,521.75 L 1404.00,524.25 L 1405.50,526.25 L 1406.25,528.00 L 1406.75,528.50 L 1407.00,530.25 L 1407.25,530.50 L 1407.25,531.50 L 1407.75,532.75 L 1407.75,537.00 L 1407.50,537.25 L 1407.50,538.25 L 1407.25,538.50 L 1406.75,541.25 L 1406.00,542.00 L 1405.25,543.50 L 1403.00,546.50 L 1400.00,549.25 L 1398.50,550.00 L 1397.25,551.00 L 1396.50,551.00 L 1395.50,551.75 L 1395.00,551.75 L 1394.75,552.00 L 1392.25,552.25 L 1392.00,552.50 L 1390.75,552.50 L 1390.50,552.75 L 1383.00,552.75 L 1382.75,552.50 L 1381.50,552.50 L 1381.25,552.25 L 1380.25,552.25 L 1380.00,552.00 L 1378.75,552.00 L 1377.00,551.00 L 1376.25,551.00 L 1373.75,549.75 L 1370.75,547.50 L 1367.75,544.25 L 1367.00,542.75 L 1365.75,541.25 L 1365.75,540.50 L 1365.50,540.25 L 1365.50,539.50 L 1365.00,538.25 L 1365.00,537.25 L 1364.75,537.00 L 1364.75,533.75 L 1365.00,533.50 L 1365.00,532.25 L 1365.25,532.00 L 1365.25,531.25 L 1365.75,530.00 L 1365.75,529.00 L 1366.50,528.25 L 1367.25,526.50 L 1369.00,524.50 L 1369.00,524.25 L 1371.75,521.50 Z"/>
<path d="M 943.50,512.75 L 940.50,515.50 L 939.00,517.50 L 938.00,520.00 L 938.00,522.00 L 937.75,522.25 L 937.75,524.50 L 938.00,524.75 L 938.00,526.75 L 938.25,527.00 L 938.25,527.50 L 938.75,528.00 L 939.25,529.25 L 940.00,530.25 L 942.50,532.75 L 943.50,533.50 L 944.50,533.75 L 945.75,534.75 L 946.25,534.75 L 948.25,535.75 L 949.00,535.75 L 950.00,536.50 L 950.50,536.50 L 950.75,536.75 L 951.75,536.75 L 954.50,537.75 L 956.50,538.00 L 957.25,538.50 L 961.50,539.00 L 962.25,539.50 L 963.00,539.50 L 963.25,539.75 L 965.00,539.75 L 965.25,540.00 L 966.50,540.00 L 967.50,540.50 L 970.00,540.75 L 971.75,541.75 L 973.75,542.00 L 974.50,542.50 L 976.50,543.00 L 978.50,544.50 L 978.75,545.00 L 978.75,546.50 L 977.75,549.00 L 976.25,550.50 L 975.25,551.00 L 974.25,552.00 L 973.75,552.00 L 972.75,552.50 L 972.00,552.50 L 971.75,552.75 L 970.25,552.75 L 970.00,553.00 L 960.50,553.00 L 960.25,552.75 L 958.25,552.75 L 958.00,552.50 L 957.00,552.50 L 955.75,552.00 L 954.50,552.00 L 952.25,551.00 L 950.75,551.00 L 950.50,550.75 L 949.50,550.75 L 947.50,550.00 L 945.50,549.75 L 944.75,549.25 L 943.00,549.00 L 941.50,548.00 L 939.00,547.75 L 938.25,548.50 L 937.25,551.25 L 937.25,554.25 L 937.75,555.00 L 938.00,556.00 L 939.00,557.00 L 939.75,557.50 L 941.25,557.75 L 942.75,558.75 L 943.50,558.75 L 946.25,559.75 L 947.50,559.75 L 949.50,560.75 L 950.50,560.75 L 950.75,561.00 L 952.50,561.00 L 952.75,561.25 L 956.25,561.50 L 956.50,561.75 L 960.25,561.75 L 960.50,562.00 L 966.75,562.00 L 967.00,561.75 L 971.50,561.75 L 971.75,561.50 L 973.50,561.50 L 973.75,561.25 L 978.00,560.75 L 980.00,559.75 L 981.00,559.75 L 983.00,558.75 L 983.50,558.75 L 984.25,558.00 L 985.25,557.75 L 988.00,555.50 L 988.00,555.25 L 989.75,553.25 L 990.50,551.75 L 991.00,549.75 L 991.50,549.00 L 991.50,548.00 L 991.75,547.75 L 991.75,545.00 L 991.50,544.75 L 991.50,543.75 L 991.00,543.00 L 990.75,541.75 L 989.75,540.00 L 989.75,539.50 L 986.50,536.00 L 985.50,535.25 L 984.50,535.00 L 983.25,534.00 L 981.75,533.75 L 980.25,533.00 L 979.25,533.00 L 977.00,532.00 L 974.25,531.75 L 972.25,531.00 L 971.00,531.00 L 970.75,530.75 L 969.75,530.75 L 969.50,530.50 L 967.25,530.25 L 967.00,530.00 L 964.50,530.00 L 964.25,529.75 L 963.00,529.75 L 962.75,529.50 L 962.00,529.50 L 960.75,529.00 L 958.75,529.00 L 958.50,528.75 L 957.50,528.75 L 957.25,528.50 L 954.50,528.00 L 951.50,526.25 L 950.50,525.25 L 950.00,524.25 L 950.00,523.00 L 950.25,522.50 L 952.75,519.75 L 953.25,519.75 L 954.25,519.00 L 955.75,518.75 L 957.50,518.00 L 958.50,518.00 L 958.75,517.75 L 962.25,517.75 L 962.50,517.50 L 968.50,517.50 L 968.75,517.75 L 971.75,517.75 L 972.00,518.00 L 973.25,518.00 L 975.00,518.75 L 976.50,519.00 L 977.25,519.50 L 979.25,519.75 L 980.75,520.75 L 982.00,521.00 L 984.50,522.25 L 985.75,522.25 L 986.50,521.25 L 986.75,520.00 L 987.50,519.00 L 988.00,517.75 L 988.00,516.50 L 988.25,516.25 L 988.50,514.00 L 988.25,513.75 L 988.25,513.25 L 987.75,512.75 L 984.25,511.00 L 982.75,510.75 L 981.75,510.00 L 981.00,510.00 L 978.25,509.00 L 976.00,508.75 L 974.50,508.00 L 966.50,507.75 L 966.25,507.50 L 962.75,507.50 L 962.50,507.75 L 957.75,507.75 L 957.50,508.00 L 954.75,508.00 L 954.00,508.50 L 953.50,508.50 L 952.50,509.00 L 951.50,509.00 L 950.00,509.75 L 948.75,510.00 L 948.25,510.50 L 947.25,511.00 L 946.75,511.00 Z"/>
<path d="M 792.25,513.25 L 791.50,514.00 L 789.50,515.25 L 786.00,518.50 L 784.50,520.50 L 784.25,521.25 L 783.00,522.75 L 783.00,523.25 L 782.00,525.00 L 782.00,525.50 L 781.00,527.50 L 781.00,529.50 L 780.75,529.75 L 780.75,531.75 L 780.50,532.00 L 780.50,538.50 L 780.75,538.75 L 780.75,540.25 L 781.00,540.50 L 781.00,542.00 L 781.25,542.25 L 781.25,542.75 L 781.75,543.25 L 782.00,544.50 L 782.75,545.50 L 782.75,546.00 L 783.25,547.00 L 784.00,547.75 L 785.00,549.75 L 788.75,554.00 L 789.00,554.00 L 790.75,555.75 L 791.50,556.00 L 793.75,557.75 L 794.25,557.75 L 795.25,558.50 L 797.00,559.00 L 797.75,559.50 L 799.50,559.75 L 801.25,560.75 L 802.25,560.75 L 802.50,561.00 L 803.50,561.00 L 803.75,561.25 L 804.75,561.25 L 805.00,561.50 L 806.00,561.50 L 806.25,561.75 L 808.75,561.75 L 809.00,562.00 L 811.00,562.00 L 811.25,562.25 L 817.50,562.25 L 817.75,562.00 L 822.50,561.75 L 822.75,561.50 L 823.75,561.50 L 824.75,561.00 L 827.00,560.75 L 828.50,559.75 L 829.50,559.75 L 829.75,559.50 L 831.25,559.25 L 832.00,558.75 L 833.00,558.50 L 834.00,557.75 L 834.50,557.75 L 835.75,556.75 L 836.25,556.75 L 839.25,554.50 L 840.25,554.00 L 843.50,550.75 L 845.75,547.75 L 845.75,547.25 L 846.75,545.50 L 846.75,545.00 L 847.75,543.75 L 848.00,542.25 L 848.50,541.25 L 848.50,540.25 L 848.75,540.00 L 849.00,535.50 L 849.25,535.25 L 849.25,532.00 L 849.00,531.75 L 849.00,530.50 L 848.75,530.25 L 848.75,528.50 L 848.50,528.25 L 848.50,527.50 L 848.00,526.50 L 847.75,525.00 L 847.00,524.00 L 846.75,523.00 L 845.50,520.75 L 842.75,517.50 L 842.75,517.25 L 842.25,517.00 L 840.50,515.00 L 837.50,513.00 L 836.75,512.75 L 836.25,512.25 L 835.00,511.75 L 834.00,511.00 L 833.25,511.00 L 832.25,510.50 L 831.75,510.00 L 831.00,510.00 L 828.50,509.00 L 827.00,509.00 L 825.00,508.00 L 818.25,507.75 L 818.00,507.50 L 813.00,507.50 L 812.75,507.75 L 806.00,508.00 L 803.50,509.00 L 801.25,509.25 L 799.50,510.00 L 798.75,510.00 Z M 798.75,522.00 L 800.75,520.75 L 801.50,520.00 L 802.50,519.75 L 803.50,519.00 L 805.00,518.75 L 806.25,518.00 L 807.25,518.00 L 807.50,517.75 L 810.25,517.75 L 810.50,517.50 L 816.25,517.50 L 816.50,517.75 L 820.00,517.75 L 820.25,518.00 L 821.50,518.00 L 823.00,518.75 L 824.00,518.75 L 825.25,519.50 L 827.00,520.00 L 827.50,520.50 L 829.75,521.75 L 833.00,525.00 L 833.75,526.00 L 834.25,527.25 L 834.75,527.75 L 835.00,529.25 L 836.00,530.50 L 836.00,531.75 L 836.25,532.00 L 836.25,534.75 L 836.50,535.00 L 836.50,535.75 L 836.25,536.00 L 836.25,538.75 L 836.00,539.00 L 836.00,539.75 L 835.25,540.75 L 834.25,543.25 L 832.75,545.25 L 829.00,549.00 L 828.25,549.25 L 827.00,550.25 L 825.50,551.00 L 824.25,551.25 L 823.75,551.75 L 823.25,551.75 L 823.00,552.00 L 820.50,552.25 L 820.25,552.50 L 818.75,552.50 L 818.50,552.75 L 810.25,552.75 L 810.00,552.50 L 808.50,552.50 L 808.25,552.25 L 806.00,552.00 L 805.75,551.75 L 805.25,551.75 L 804.25,551.00 L 803.50,551.00 L 802.00,550.00 L 801.50,550.00 L 798.75,548.00 L 797.50,546.75 L 797.25,546.75 L 795.00,544.00 L 793.75,541.50 L 793.75,541.00 L 793.00,539.25 L 793.00,532.75 L 793.25,532.50 L 793.25,531.50 L 793.75,530.50 L 793.75,529.75 L 794.75,527.75 L 795.00,526.75 L 796.50,524.50 Z"/>
<path d="M 569.75,293.25 L 569.25,294.50 L 569.25,423.75 L 569.00,424.00 L 569.00,443.00 L 569.25,444.00 L 570.00,444.75 L 635.75,444.75 L 636.00,445.00 L 637.00,444.75 L 641.25,444.75 L 641.50,445.00 L 673.00,444.75 L 673.25,444.50 L 676.50,444.50 L 676.75,444.25 L 679.00,444.25 L 679.25,444.00 L 681.50,444.00 L 681.75,443.75 L 691.25,443.50 L 693.75,443.00 L 699.00,442.75 L 703.00,441.75 L 705.25,441.75 L 708.25,440.75 L 714.25,439.75 L 715.50,439.00 L 717.25,438.75 L 720.00,437.75 L 721.00,437.75 L 722.75,436.75 L 723.75,436.75 L 727.50,435.00 L 729.00,434.75 L 730.50,433.75 L 733.75,432.75 L 734.50,432.00 L 740.00,429.50 L 742.25,428.00 L 743.75,427.50 L 747.75,424.75 L 748.25,424.75 L 757.00,417.50 L 761.00,413.50 L 767.00,406.25 L 767.00,405.75 L 769.75,401.75 L 770.75,399.00 L 771.50,398.25 L 772.50,396.25 L 772.75,394.50 L 773.75,392.75 L 773.75,391.75 L 774.75,389.50 L 775.75,385.50 L 775.75,384.00 L 776.75,382.00 L 777.00,379.50 L 777.50,378.00 L 777.50,374.75 L 777.75,374.50 L 777.75,359.50 L 777.50,359.25 L 777.25,354.75 L 776.75,353.25 L 776.75,352.00 L 775.75,349.50 L 775.50,346.75 L 774.75,345.00 L 774.75,344.25 L 774.00,343.00 L 773.75,341.25 L 772.75,339.50 L 771.75,336.50 L 770.75,335.25 L 769.75,332.50 L 768.75,331.25 L 768.50,330.25 L 763.75,323.50 L 761.25,320.50 L 756.50,315.75 L 752.75,312.50 L 747.75,309.00 L 742.75,306.00 L 742.25,306.00 L 734.75,302.00 L 733.25,301.75 L 732.25,301.00 L 731.50,301.00 L 729.75,300.00 L 729.00,300.00 L 725.25,298.25 L 723.50,298.00 L 721.75,297.00 L 720.50,297.00 L 717.25,296.00 L 716.00,296.00 L 713.50,295.00 L 711.25,295.00 L 706.50,294.00 L 701.50,293.75 L 699.50,293.25 L 691.50,293.00 L 691.25,292.75 L 683.50,292.50 L 683.25,292.25 L 676.75,292.25 L 676.50,292.00 L 586.50,292.00 L 586.25,292.25 L 577.25,292.25 L 577.00,292.50 L 572.25,292.25 L 572.00,292.50 L 570.50,292.50 Z M 618.25,322.75 L 619.25,322.00 L 620.75,322.00 L 621.00,322.25 L 623.25,322.00 L 623.50,322.25 L 647.75,322.25 L 648.00,322.50 L 666.75,322.50 L 667.00,322.75 L 677.25,322.75 L 677.50,323.00 L 679.00,323.00 L 679.25,323.25 L 681.25,323.50 L 681.50,323.75 L 685.50,324.00 L 687.50,324.75 L 689.25,325.00 L 689.75,325.50 L 690.25,325.50 L 690.50,325.75 L 692.00,325.75 L 692.25,326.00 L 693.00,326.00 L 694.25,326.75 L 695.50,326.75 L 696.75,327.50 L 698.50,327.75 L 700.00,328.75 L 700.50,328.75 L 701.75,329.50 L 703.50,330.00 L 704.25,330.75 L 705.25,331.00 L 707.25,332.50 L 708.25,332.75 L 709.00,333.50 L 711.25,334.75 L 712.50,336.00 L 713.75,336.75 L 716.00,339.00 L 716.00,339.25 L 718.50,342.00 L 719.00,343.00 L 720.75,345.25 L 721.25,346.50 L 722.00,347.25 L 722.00,348.00 L 724.00,352.00 L 724.00,353.00 L 724.75,354.50 L 725.00,356.75 L 725.25,357.00 L 725.25,358.00 L 725.50,358.25 L 725.50,359.25 L 725.75,359.50 L 725.75,363.25 L 726.00,363.50 L 725.75,376.25 L 725.50,376.50 L 725.50,377.75 L 725.25,378.00 L 725.25,379.00 L 725.00,379.25 L 725.00,380.75 L 724.00,383.00 L 724.00,384.00 L 723.00,385.75 L 723.00,386.25 L 722.25,387.50 L 722.25,388.00 L 718.00,394.75 L 715.25,397.75 L 715.00,397.75 L 712.25,400.25 L 710.75,401.00 L 710.00,401.75 L 709.25,402.00 L 708.00,403.00 L 706.00,404.00 L 705.50,404.00 L 705.00,404.50 L 702.50,405.75 L 701.00,406.00 L 699.25,407.00 L 698.75,407.00 L 697.00,407.75 L 695.25,408.00 L 693.50,409.00 L 691.75,409.00 L 691.50,409.25 L 690.50,409.25 L 688.50,410.00 L 687.25,410.00 L 687.00,410.25 L 686.00,410.25 L 685.75,410.50 L 684.75,410.50 L 684.50,410.75 L 683.25,410.75 L 683.00,411.00 L 680.25,411.00 L 680.00,411.25 L 679.00,411.25 L 678.75,411.50 L 676.75,411.75 L 676.50,412.00 L 674.00,412.00 L 673.75,412.25 L 661.25,412.50 L 661.00,412.75 L 625.50,412.75 L 625.25,413.00 L 619.50,413.00 L 619.00,412.75 L 618.25,412.00 L 618.25,402.00 L 618.50,401.75 L 618.50,371.75 L 618.25,371.50 L 618.25,351.25 L 618.50,351.00 L 618.50,344.00 L 618.25,343.75 L 618.25,343.00 L 618.50,342.75 L 618.50,341.50 L 618.25,341.25 Z"/>
<path d="M 475.25,292.00 L 474.75,292.50 L 474.75,297.25 L 474.50,297.50 L 474.50,300.50 L 474.75,300.75 L 474.75,423.00 L 474.50,423.25 L 474.50,438.50 L 474.25,438.75 L 474.25,442.25 L 474.50,442.50 L 474.50,443.75 L 475.25,444.75 L 490.75,444.75 L 491.00,444.50 L 519.50,444.50 L 519.75,444.75 L 523.00,444.75 L 523.25,444.50 L 524.00,444.50 L 524.75,443.75 L 524.75,410.00 L 524.50,409.75 L 524.50,299.25 L 524.75,299.00 L 524.50,294.25 L 524.75,294.00 L 524.75,293.25 L 524.25,292.50 L 523.50,292.00 L 522.25,292.00 L 522.00,292.25 L 514.50,292.25 L 514.25,292.00 Z"/>
<path d="M 1617.00,293.00 L 1617.00,320.25 L 1617.50,321.00 L 1618.50,321.50 L 1637.50,321.75 L 1637.75,321.50 L 1689.00,321.25 L 1689.75,322.00 L 1689.50,323.50 L 1689.25,443.00 L 1690.50,444.25 L 1736.00,444.50 L 1737.25,443.50 L 1737.25,436.00 L 1737.00,435.75 L 1737.00,322.00 L 1737.25,321.50 L 1738.00,321.00 L 1744.25,321.25 L 1744.50,321.50 L 1812.25,321.25 L 1813.50,321.00 L 1814.25,320.25 L 1814.00,318.75 L 1814.00,297.25 L 1813.75,297.00 L 1813.75,292.50 L 1813.00,292.00 L 1619.25,292.00 L 1618.50,291.75 L 1617.50,292.00 Z"/>
<path d="M 1105.25,291.75 L 1103.75,291.75 L 1103.50,292.00 L 1058.50,292.00 L 1058.00,292.25 L 1058.00,292.75 L 1057.75,293.00 L 1057.75,321.00 L 1058.00,321.25 L 1058.00,410.75 L 1057.75,411.00 L 1057.75,443.75 L 1058.00,444.25 L 1058.75,444.75 L 1105.25,444.75 L 1106.25,444.25 L 1106.75,443.50 L 1106.75,437.25 L 1106.50,437.00 L 1106.50,300.25 L 1106.75,300.00 L 1106.75,293.25 L 1106.50,293.00 L 1106.50,292.50 L 1106.00,292.00 L 1105.50,292.00 Z"/>
<path d="M 1014.00,292.25 L 967.50,291.75 L 966.00,292.50 L 966.00,389.00 L 965.50,389.50 L 963.50,388.00 L 961.50,385.00 L 946.50,370.00 L 926.50,351.75 L 896.25,322.75 L 880.25,308.75 L 872.00,300.25 L 864.00,293.00 L 862.00,292.00 L 806.25,292.25 L 805.75,293.50 L 805.50,298.50 L 805.50,442.00 L 806.00,444.25 L 806.50,444.75 L 811.25,445.00 L 852.25,445.00 L 853.25,444.75 L 853.75,444.00 L 853.50,341.50 L 854.75,341.00 L 878.50,362.75 L 911.25,394.75 L 918.25,400.50 L 944.50,425.75 L 955.00,435.25 L 959.00,438.25 L 965.50,444.50 L 966.50,445.00 L 1013.50,444.75 L 1014.25,443.75 Z"/>
<path d="M 1586.75,292.25 L 1586.25,291.75 L 1545.25,292.00 L 1540.00,291.50 L 1539.00,292.00 L 1538.50,351.25 L 1537.50,352.00 L 1438.00,352.00 L 1437.00,351.25 L 1437.25,292.75 L 1436.50,292.00 L 1389.00,292.00 L 1388.25,294.00 L 1388.50,444.00 L 1389.25,444.50 L 1394.50,444.75 L 1436.50,444.75 L 1437.50,443.75 L 1437.00,430.50 L 1437.00,383.50 L 1437.50,382.75 L 1527.00,382.75 L 1538.00,382.25 L 1538.75,383.00 L 1539.00,444.50 L 1586.25,444.50 L 1586.75,443.75 Z"/>
<path d="M 432.75,291.50 L 431.50,291.00 L 425.75,291.75 L 381.25,292.25 L 378.25,294.00 L 370.00,301.25 L 361.25,310.75 L 346.75,324.75 L 340.25,332.00 L 325.00,347.00 L 316.00,357.25 L 315.25,357.25 L 251.75,293.75 L 249.00,292.00 L 196.00,292.00 L 195.00,293.50 L 194.50,443.50 L 195.00,444.50 L 239.75,444.75 L 241.50,443.75 L 241.25,342.00 L 242.00,342.00 L 306.50,406.50 L 312.50,410.75 L 313.75,411.00 L 320.00,405.75 L 383.75,341.75 L 384.75,341.75 L 385.25,342.50 L 385.50,443.75 L 386.25,444.75 L 430.25,444.75 L 432.25,444.25 L 433.00,443.50 Z"/>
<path d="M 1149.75,337.50 L 1146.00,346.25 L 1144.25,353.00 L 1143.00,361.25 L 1142.75,367.50 L 1143.00,375.50 L 1146.00,391.50 L 1148.00,397.50 L 1154.25,409.50 L 1162.00,418.75 L 1171.50,427.50 L 1183.00,434.75 L 1195.25,439.75 L 1209.75,443.50 L 1212.75,443.75 L 1215.25,444.75 L 1225.50,445.75 L 1230.25,446.75 L 1243.75,447.75 L 1270.25,447.75 L 1301.50,445.00 L 1306.50,443.75 L 1314.75,442.75 L 1327.25,439.75 L 1329.00,438.75 L 1334.00,437.75 L 1336.00,436.75 L 1343.50,434.75 L 1347.25,433.00 L 1348.00,432.00 L 1348.25,356.25 L 1347.50,354.75 L 1328.50,355.25 L 1248.50,355.50 L 1247.50,357.25 L 1247.75,386.50 L 1248.25,387.00 L 1301.50,386.75 L 1302.50,388.00 L 1302.00,406.50 L 1300.25,408.75 L 1295.75,410.75 L 1293.25,411.00 L 1291.25,412.00 L 1272.00,415.00 L 1256.50,415.50 L 1239.50,414.00 L 1229.00,412.00 L 1220.00,409.00 L 1215.25,406.75 L 1205.00,399.75 L 1201.75,396.50 L 1199.50,393.25 L 1194.75,382.00 L 1193.25,373.00 L 1193.25,366.00 L 1194.75,355.50 L 1196.75,350.00 L 1201.75,342.25 L 1207.50,336.00 L 1215.25,330.00 L 1219.50,328.00 L 1231.25,324.00 L 1247.75,321.00 L 1256.75,320.25 L 1284.00,320.75 L 1308.75,324.00 L 1314.75,325.75 L 1318.25,326.00 L 1322.50,327.50 L 1326.00,328.00 L 1333.25,330.75 L 1337.50,331.75 L 1338.75,331.50 L 1339.75,325.50 L 1339.75,297.50 L 1338.25,296.25 L 1324.75,293.25 L 1305.75,290.00 L 1278.00,287.00 L 1248.75,287.00 L 1222.00,290.00 L 1219.75,291.00 L 1213.75,292.00 L 1203.25,295.00 L 1202.25,295.75 L 1194.50,298.25 L 1185.75,302.25 L 1177.25,307.25 L 1167.50,315.00 L 1162.00,320.25 L 1155.25,328.25 Z"/>
<path d="M 433.00,147.25 L 431.75,146.75 L 419.50,149.00 L 407.75,150.00 L 404.25,151.00 L 395.50,152.00 L 391.75,153.00 L 389.25,153.00 L 380.50,154.75 L 376.50,155.00 L 373.00,156.00 L 364.00,157.00 L 360.50,158.00 L 355.75,158.25 L 349.00,159.75 L 344.50,160.00 L 337.00,161.75 L 333.50,162.00 L 321.25,165.00 L 310.00,167.00 L 291.25,172.00 L 281.00,174.00 L 278.75,175.00 L 273.25,176.00 L 271.25,177.00 L 254.25,181.00 L 252.25,182.00 L 246.75,183.00 L 237.25,186.00 L 235.75,186.00 L 233.75,187.00 L 222.25,190.00 L 211.00,194.00 L 206.75,195.00 L 205.00,196.00 L 197.50,198.00 L 188.00,201.75 L 186.00,202.00 L 171.25,207.00 L 148.00,217.00 L 141.25,219.00 L 124.25,226.00 L 93.50,240.00 L 92.25,241.00 L 78.75,247.00 L 62.50,255.25 L 22.25,278.25 L 11.25,285.00 L 8.00,288.00 L 8.00,307.75 L 9.00,321.00 L 10.50,364.00 L 11.25,367.75 L 12.00,367.50 L 12.75,360.75 L 12.75,354.00 L 14.50,330.25 L 14.75,315.50 L 16.25,298.00 L 16.00,293.50 L 17.75,291.00 L 57.75,270.75 L 98.75,253.00 L 100.50,252.75 L 111.50,248.00 L 113.25,247.75 L 114.75,246.75 L 137.25,238.75 L 138.25,238.00 L 170.00,228.75 L 171.75,227.75 L 197.25,220.00 L 212.00,216.75 L 222.25,213.75 L 238.25,210.00 L 241.75,209.75 L 253.50,206.75 L 255.25,206.75 L 262.25,205.00 L 267.25,204.75 L 280.25,201.75 L 283.25,201.50 L 289.25,199.75 L 292.50,199.50 L 298.00,198.00 L 311.75,195.75 L 314.25,194.75 L 317.75,194.50 L 325.25,192.75 L 344.25,189.75 L 355.25,188.75 L 358.50,187.75 L 370.50,186.75 L 375.50,185.75 L 395.00,183.75 L 399.50,182.75 L 412.50,181.75 L 432.25,179.00 L 433.25,178.00 Z"/>
<path d="M 1458.00,141.00 L 1447.50,143.00 L 1423.50,151.00 L 1383.75,161.75 L 1311.00,177.00 L 1282.00,182.00 L 1247.00,187.00 L 1208.50,191.00 L 1155.25,194.75 L 1126.00,195.75 L 1056.50,194.75 L 996.75,190.75 L 929.50,184.00 L 766.75,162.00 L 658.25,150.00 L 580.25,144.50 L 540.50,144.00 L 540.00,145.25 L 546.00,159.75 L 548.25,163.25 L 555.25,169.75 L 567.25,177.00 L 583.75,181.75 L 679.25,189.75 L 707.75,193.75 L 771.75,199.75 L 862.25,211.50 L 957.75,221.75 L 1018.50,225.50 L 1077.00,226.00 L 1115.25,224.75 L 1170.75,219.75 L 1208.00,214.75 L 1266.25,204.50 L 1343.50,185.50 L 1371.00,176.75 L 1422.25,157.75 L 1456.25,142.50 Z"/>
<path d="M 561.50,61.25 L 557.75,61.25 L 557.50,61.50 L 554.75,61.50 L 554.50,61.75 L 547.00,62.00 L 546.75,62.25 L 545.25,62.25 L 545.00,62.50 L 543.50,62.50 L 543.25,62.75 L 537.00,63.00 L 536.75,63.25 L 535.25,63.25 L 532.50,64.00 L 531.25,64.00 L 529.00,65.00 L 528.00,65.00 L 525.50,66.00 L 524.75,66.00 L 522.25,67.00 L 521.50,67.00 L 520.00,68.00 L 519.00,68.00 L 517.00,69.00 L 516.50,69.00 L 515.50,69.75 L 514.00,70.00 L 510.25,72.00 L 509.50,72.00 L 508.25,73.00 L 507.75,73.00 L 507.25,73.50 L 505.25,74.25 L 504.50,75.00 L 504.00,75.00 L 502.75,75.75 L 501.25,77.00 L 500.75,77.00 L 500.00,77.75 L 499.25,78.00 L 495.75,80.50 L 492.00,83.75 L 491.25,84.00 L 486.00,89.25 L 479.00,97.50 L 478.00,99.25 L 477.00,100.25 L 476.00,102.25 L 475.00,103.25 L 474.00,105.50 L 473.25,106.25 L 472.75,107.75 L 472.00,108.50 L 471.00,110.75 L 470.25,111.50 L 469.50,113.25 L 468.25,115.00 L 466.25,119.50 L 466.00,121.25 L 465.00,122.75 L 465.00,123.50 L 464.00,126.75 L 464.00,128.50 L 463.00,131.50 L 462.75,133.75 L 462.00,136.25 L 461.75,139.25 L 461.50,139.50 L 461.50,141.75 L 461.25,142.00 L 461.25,151.75 L 461.50,152.00 L 461.50,155.25 L 461.75,155.50 L 462.00,160.25 L 462.25,160.50 L 462.25,162.00 L 462.75,163.50 L 463.00,166.75 L 464.00,169.25 L 464.25,171.50 L 464.75,172.25 L 465.00,174.00 L 465.75,175.00 L 466.25,177.50 L 468.00,180.75 L 468.00,181.50 L 468.50,182.00 L 470.25,185.75 L 470.75,186.00 L 471.75,188.25 L 476.75,195.25 L 478.00,196.50 L 478.25,197.25 L 481.75,201.25 L 485.50,204.75 L 490.50,208.50 L 491.25,208.75 L 494.00,211.00 L 497.25,212.75 L 498.50,213.75 L 499.50,214.00 L 500.25,214.75 L 500.75,214.75 L 503.25,216.00 L 503.75,216.50 L 507.25,218.00 L 507.75,218.50 L 509.25,218.75 L 510.25,219.50 L 512.50,220.50 L 514.25,220.75 L 515.75,221.75 L 518.00,222.00 L 519.00,222.50 L 523.25,223.00 L 525.00,223.75 L 528.25,224.00 L 530.25,224.75 L 532.00,224.75 L 532.25,225.00 L 535.25,225.25 L 535.50,225.50 L 537.50,225.50 L 537.75,225.75 L 542.25,225.75 L 542.50,226.00 L 545.50,226.00 L 545.75,226.25 L 550.25,226.25 L 550.50,226.00 L 560.75,225.50 L 562.00,225.00 L 565.00,224.75 L 567.75,223.75 L 569.25,223.75 L 571.50,222.75 L 576.25,221.75 L 578.00,220.75 L 579.50,220.50 L 581.00,219.75 L 581.75,219.75 L 583.25,218.75 L 584.00,218.75 L 585.75,217.75 L 589.00,216.75 L 590.50,215.75 L 591.75,215.50 L 594.00,214.50 L 595.00,213.75 L 596.25,213.50 L 596.75,213.00 L 600.00,211.50 L 602.25,210.00 L 603.25,209.00 L 605.50,207.75 L 606.25,206.75 L 606.25,205.75 L 605.00,205.00 L 590.50,205.00 L 590.25,204.75 L 586.25,204.75 L 586.00,204.50 L 584.50,204.50 L 583.00,204.00 L 579.75,203.75 L 578.25,203.25 L 574.25,203.00 L 574.00,202.75 L 573.00,202.75 L 571.50,202.00 L 568.50,201.75 L 567.50,201.25 L 565.75,201.00 L 564.00,200.00 L 562.50,199.75 L 559.00,198.00 L 558.00,198.00 L 557.00,197.25 L 555.25,196.75 L 554.75,196.25 L 553.50,196.00 L 552.50,195.00 L 550.50,194.25 L 543.00,189.25 L 539.00,185.50 L 531.75,177.00 L 531.75,176.50 L 530.25,174.75 L 529.50,173.25 L 526.75,169.50 L 525.75,167.00 L 525.00,166.25 L 524.50,164.50 L 524.00,164.00 L 523.75,162.75 L 523.00,161.75 L 522.75,160.50 L 521.75,158.75 L 521.75,158.00 L 520.50,154.25 L 519.75,153.00 L 519.75,151.25 L 519.00,149.00 L 518.75,145.75 L 518.00,143.00 L 517.75,137.50 L 517.50,137.25 L 517.50,135.25 L 517.25,135.00 L 517.50,122.00 L 517.75,121.75 L 518.00,116.75 L 518.50,115.75 L 518.50,114.50 L 519.75,109.75 L 519.75,108.50 L 520.50,107.25 L 521.50,104.25 L 521.75,102.25 L 522.50,101.25 L 523.75,97.50 L 524.50,96.50 L 524.75,95.50 L 526.75,92.00 L 526.75,91.50 L 527.75,90.50 L 528.75,88.50 L 531.75,84.75 L 541.00,75.75 L 543.25,74.00 L 546.00,72.50 L 546.75,71.75 L 547.25,71.75 L 549.75,70.00 L 550.25,70.00 L 551.75,69.00 L 554.25,67.75 L 554.75,67.75 L 555.50,67.00 L 557.00,66.50 L 559.50,65.00 L 561.00,64.75 L 562.00,64.25 L 563.00,63.25 L 563.00,62.25 L 562.25,61.50 Z"/>
<path d="M 585.50,139.25 L 604.00,138.50 L 640.00,131.75 L 859.25,80.75 L 931.00,68.75 L 976.00,63.00 L 1042.25,57.75 L 1107.25,56.25 L 1183.00,59.75 L 1248.00,66.75 L 1299.25,75.75 L 1366.75,90.75 L 1446.25,111.75 L 1599.50,155.75 L 1674.75,173.50 L 1715.00,180.75 L 1776.50,188.75 L 1829.25,191.75 L 1866.25,192.00 L 1924.00,188.75 L 1983.25,179.75 L 2007.00,240.50 L 2014.00,268.25 L 2017.00,288.50 L 2019.50,344.75 L 2017.00,374.25 L 2010.25,406.50 L 2010.00,415.50 L 2013.75,410.75 L 2022.75,387.50 L 2036.75,330.25 L 2039.75,298.50 L 2040.00,262.75 L 2034.75,221.50 L 2029.75,201.00 L 2020.75,175.25 L 2005.00,144.75 L 1937.75,158.00 L 1904.25,161.75 L 1878.00,162.75 L 1804.75,161.75 L 1760.00,158.00 L 1725.75,153.00 L 1679.00,144.00 L 1628.75,132.00 L 1368.50,51.00 L 1298.25,34.00 L 1228.25,22.00 L 1161.75,16.25 L 1080.50,15.00 L 1000.50,20.00 L 937.50,29.00 L 862.00,46.00 L 791.50,67.00 L 739.75,84.00 Z"/>
</g></svg>